<svg id="Logo" xmlns="http://www.w3.org/2000/svg" viewBox="0 0 797.45 648.44"><defs><style>.cls-1,.cls-3{fill:#8ed6f3;}.cls-2{fill:#03aa6f;}.cls-3,.cls-9{font-size:126px;font-family:Bebas, Bebas;}.cls-4{letter-spacing:0.02em;}.cls-5{letter-spacing:0.02em;}.cls-6{letter-spacing:-0.07em;}.cls-7{letter-spacing:0.02em;}.cls-8{letter-spacing:-0.02em;}.cls-12,.cls-9{fill:#054762;}.cls-10{fill:#f29379;}.cls-11{fill:#cc6f5e;}.cls-13{fill:#fff;}</style></defs><title>Logo-Backpackers</title><g id="Calque_3" data-name="Calque 3"><path class="cls-1" d="M496.07,333c-10.38-8.25-21.48-15.53-20.43-31.72,2-31.4,4.05-62.79,6.71-94.15,1.75-20.72,2.63-41.52,3.65-62.29.5-10,.93-10.45,10.69-9.07,10.29,1.46,20.61,2.85,31,3.54,5.75.38,6.51,2.94,5.59,7.63Q520.08,214.21,507,281.53c-3.3,17.08-5.63,34.36-10.58,51.1Z" transform="translate(-59.89 -134.41)"/><path class="cls-1" d="M285.89,384.69a15,15,0,0,1-.76,2.12,6.56,6.56,0,0,1-1.1,1.27c-4.9,5.42-8.87,13.36-14.93,15.59-6.67,2.46-12.28-5.74-18.1-9.65-33.34-22.36-66.57-44.91-99.89-67.3-6.46-4.35-13.3-8.06-19.28-13.2-3-2.56-3.85-4.2-1.28-7.49,7.78-10,15.37-20.08,23-30.18,2.85-3.78,5.63-2.68,8.55-.13q47.19,41.22,94.42,82.39c8.7,7.56,18,14.39,26.09,22.69C283.74,382,285.64,382.45,285.89,384.69Z" transform="translate(-59.89 -134.41)"/><path class="cls-1" d="M101.3,360.26c4.24,1.77,8.5,3.31,12.55,5.27,41.64,20.17,83.22,40.48,124.92,60.55,6.69,3.23,8.47,6.26,1.62,11a3.72,3.72,0,0,0-.59.6c-14.05,15.88-14,15.85-34.52,8.84-38.88-13.33-77.72-26.8-116.73-39.74-7.17-2.38-7.76-5.5-5-11.56,4.62-10.26,8.79-20.71,13.22-31.06C97.6,362.19,98.28,359.75,101.3,360.26Z" transform="translate(-59.89 -134.41)"/><path class="cls-1" d="M693.9,451.68c-5.81-.15-8-4.67-11-7.78-12.55-13.11-12-14,4.75-21.7,22-10.12,43.5-21.11,65.27-31.65,19.18-9.29,38.46-18.36,57.6-27.75,5.63-2.77,8.94-2.48,11.29,4.23A192.76,192.76,0,0,0,834,395.68c2.53,4.65,1.92,8.32-4.15,10.32-18.41,6.05-36.66,12.58-55,18.8Q737,437.61,699.13,450.22C697.28,450.84,695.36,451.28,693.9,451.68Z" transform="translate(-59.89 -134.41)"/><path class="cls-1" d="M163.29,510.63c-26.61-4-55.13-2.67-83.27-6.44-.56-.08-1.13,0-1.68-.12-5.7-.87-13,2.61-16.81-2.09-3.48-4.31.83-10.75,1.06-16.35.33-7.8,2.25-15.52,3.15-23.31.55-4.82,3.67-4.32,6.75-3.72,23.68,4.6,47.32,9.39,71,13.93,14.57,2.79,29.21,5.23,43.81,7.86,3,.54,6.84.42,8.24,3.25,1.63,3.32-1.8,5.32-3.84,7.59-4.68,5.23-9.32,10.52-13.62,16.06C174.36,512.09,169.39,510.09,163.29,510.63Z" transform="translate(-59.89 -134.41)"/><path class="cls-1" d="M757.24,509.16c-4.46-1.08-10.4,2.79-14.78-.78-8.08-6.59-14.94-14.59-21.19-22.94-2.52-3.37,1.27-3.31,3.26-3.69,14.62-2.76,29.27-5.32,43.86-8.23,24.77-4.95,49.84-8.4,74.33-14.75,6.14-1.59,8.81.39,9.38,6.64,1,10.63,2.42,21.22,3.53,31.84.37,3.57.11,6.52-5,6.77C819.73,505.57,788.85,507.39,757.24,509.16Z" transform="translate(-59.89 -134.41)"/><path class="cls-1" d="M130.73,558.32c-11.4,12.73-22.84,25.42-34.19,38.19-4.44,5-10.84,4.2-16.36,5.42-16.52,3.62-16.53,3.31-17.81-13.53-.55-7.27-1.31-14.53-2.12-21.77-.25-2.25-1.37-4.7,2.23-5q33.77-2.89,67.54-5.72C130.26,556.71,130.5,557.51,130.73,558.32Z" transform="translate(-59.89 -134.41)"/><path class="cls-1" d="M787.22,556.71c11.57.6,22.73,1,33.85,1.8,9.8.71,19.55,2.36,29.36,2.72,5.81.2,7.59,2.32,6.69,7.65-1.61,9.43-3.12,18.87-3.22,28.47-.06,5.73-2.9,6.23-8.27,6.16-21-.27-32.56-14.49-44.22-28.6C796.66,569.17,790.19,564.69,787.22,556.71Z" transform="translate(-59.89 -134.41)"/><path class="cls-1" d="M703.86,339.18a103.16,103.16,0,0,1-13.11-7.35c-16.36,13.65-32.13,28-48.23,42-11.87,10.31-11.91,10.25-1.67,22.17a41.23,41.23,0,0,1,3.16,4c3.29,4.94,7,4.45,11.46,1.45Q695,374.55,734.6,347.76A99.78,99.78,0,0,1,703.86,339.18Z" transform="translate(-59.89 -134.41)"/><path class="cls-1" d="M442.08,299a29.13,29.13,0,0,0-.09-3.83c-3.5-33.29-4.79-66.73-6.95-100.1-1.13-17.4-3.08-34.73-3.28-52.18-.06-5-1.28-9.75-7.64-8.13-10.7,2.74-21.7,2.91-32.54,4.3-7.54,1-8,4.87-7,10.42,1.28,7.18,2.86,14.3,4.22,21.47,7,37.21,13.95,74.45,21.08,111.64,3,15.7,6.42,31.33,9.74,47,.44,2.07.76,6.91,4,3.3,5.85-6.54,14.15-11.78,17.36-20.19l0,.36C443.14,308.78,442.21,300.07,442.08,299Z" transform="translate(-59.89 -134.41)"/><path class="cls-1" d="M350.21,409.8,354,378c-2.31-3.47-4.61-6.92-6.95-10.36-16.27-23.94-32.63-47.82-48.87-71.77q-29.79-43.94-59.38-88c-2.78-4.16-4.93-4.32-8.75-1.38-8.66,6.69-17.47,13.21-26.53,19.35-7.7,5.24-8,6.1-1.65,13.39Q242.45,286,283,332.83q31.77,36.57,63.78,72.91C347.81,406.91,348.87,408.71,350.21,409.8Z" transform="translate(-59.89 -134.41)"/><path class="cls-1" d="M367.34,342.42l21.31-11.32Q360.2,248.18,332,165.17c-2.28-6.73-4.9-8.24-11.52-5.07a294.43,294.43,0,0,1-28.87,11.63c-5.78,2.06-6.71,5.11-4.16,10.25q14.64,29.55,29.14,59.17,25.57,52.17,51.09,104.37Z" transform="translate(-59.89 -134.41)"/><path class="cls-1" d="M627.4,171.7c-10.72-4.3-21.88-7.5-32.15-12.9-1.47-.77-3.23-1-5.73-1.72-2.26,1.25-3.77,3.8-4.75,6.69-3.82,11.19-7.55,22.41-11.34,33.62C558,243,542.9,288.77,527,334.23c10,4,22.34,8.85,22.34,8.85s-.11,1.42-.3,3.69q3.75-7.71,7.52-15.4,21.9-44.82,43.82-89.62c10.13-20.73,20-41.58,30.42-62.16C633.3,174.64,631.44,173.32,627.4,171.7Z" transform="translate(-59.89 -134.41)"/><path class="cls-1" d="M646.85,262.69,646,257q-12.81,18.54-25.56,37.11c-20.42,29.88-40.37,60.1-61.08,89.77L565,409.42l-1.17.76c2.18.15,4.32-1,6.5-3.73,3.89-4.8,7.65-9.71,11.69-14.38q39.39-45.48,78.89-90.89A97.76,97.76,0,0,1,646.85,262.69Z" transform="translate(-59.89 -134.41)"/><path class="cls-2" d="M830.52,651.81q-33.21-37.27-66.5-74.5-73.82-82.5-147.53-165.1c-4.69-5.29-6.81-4.73-11.08.2-11.07,12.8-23.19,24.71-34,37.71-5.23,6.28-7.65,5-12.32-.3-31.43-35.48-63.28-70.58-94.67-106.1-4.76-5.39-7-5.43-11.81,0-32,36.13-64.39,71.88-96.46,107.94-3.42,3.86-5,4.38-8.7.19-12.07-13.8-24.72-27.09-37-40.74-3.25-3.63-5.07-4.34-8.81,0-16.1,18.52-32.58,36.7-49.09,54.86-26,28.6-51.59,57.55-78.07,85.74-17.16,18.27-32.86,38-49.67,56.73-14.06,15.64-28,31.38-42.84,48H832.92C833.4,653.75,831.55,653,830.52,651.81ZM346.34,510.08l86.43-86.43c6.64-5.81,14.85-13.93,25.72-26L569.34,511.08c7.72-7.82,30.95-33.13,38.13-41.46,2.79-3.24,4.33-3.06,7.1,0q59.49,66.62,119.17,133.06c3.89,4.35,7.73,8.74,12.43,14.06H170.7c13.33-14.89,25.71-28.69,38.07-42.51q46-51.43,91.88-103c4.3-4.87,6.81-4.68,10.79.26a280.19,280.19,0,0,0,20.32,22.69" transform="translate(-59.89 -134.41)"/><text class="cls-3" transform="translate(23.45 629.68)">BA<tspan class="cls-4" x="141.44" y="0">C</tspan><tspan class="cls-5" x="208.87" y="0">K</tspan><tspan class="cls-6" x="282.15" y="0">P</tspan><tspan x="337.95" y="0">A</tspan><tspan class="cls-4" x="410.73" y="0">C</tspan><tspan class="cls-7" x="478.16" y="0">K</tspan><tspan x="551.56" y="0">E</tspan><tspan class="cls-8" x="611.36" y="0">R</tspan><tspan x="676.82" y="0">S</tspan></text><text class="cls-9" transform="translate(36.45 629.68)">BA<tspan class="cls-4" x="141.44" y="0">C</tspan><tspan class="cls-5" x="208.87" y="0">K</tspan><tspan class="cls-6" x="282.15" y="0">P</tspan><tspan x="337.95" y="0">A</tspan><tspan class="cls-4" x="410.73" y="0">C</tspan><tspan class="cls-7" x="478.16" y="0">K</tspan><tspan x="551.56" y="0">E</tspan><tspan class="cls-8" x="611.36" y="0">R</tspan><tspan x="676.82" y="0">S</tspan></text></g><g id="Calque_1" data-name="Calque 1"><path class="cls-10" d="M341.23,526.66l-28.64,0a103.46,103.46,0,0,1,6.75-31.44c2.78-7.21,5.84-14.33,7.54-21.92a65.74,65.74,0,0,0,1.42-8.34c.09-.94.45-1.22,1.37-1.22,5.18.05,10.37.05,15.55.06a.3.3,0,0,1,0,.26c-1.1,0-2.21.06-3.3,0-1.28-.12-1.85.28-1.67,1.63a117.24,117.24,0,0,1,.53,13.76c.11,9.79.56,19.57.44,29.36C341.15,514.72,341.22,520.69,341.23,526.66Z" transform="translate(-59.89 -134.41)"/><path class="cls-11" d="M345.24,461.77c0,.1,0,.21,0,.31q-7.68,0-15.35,0c-.43,0-1.13.33-1.19-.56s.49-.89,1.12-.88c3.39,0,6.79-.11,10.17.22-.06.78.38,1,1.07.94C342.43,461.75,343.83,461.77,345.24,461.77Z" transform="translate(-59.89 -134.41)"/><path class="cls-11" d="M345.24,461.77c-1.41,0-2.81,0-4.22,0-.69,0-1.13-.16-1.07-.94l5.27-.07C345.23,461.1,345.24,461.44,345.24,461.77Z" transform="translate(-59.89 -134.41)"/><path class="cls-11" d="M341.23,526.66c0-6-.08-11.94,0-17.92.12-9.79-.33-19.57-.44-29.36a117.24,117.24,0,0,0-.53-13.76c-.18-1.35.39-1.75,1.67-1.63,1.09.09,2.2,0,3.3,0,0,.36.07.73.07,1.09q0,30.78,0,61.57Z" transform="translate(-59.89 -134.41)"/><path class="cls-11" d="M345.25,542.17a.67.67,0,0,1-.15-.06c-2.08-2.2-2.69-1.41.18-3.89Z" transform="translate(-59.89 -134.41)"/><path class="cls-11" d="M345.35,545.47c0,.92-.05,1.85-.08,2.77-2.61-2.36-2.56-1.62,0-4C345.3,544.67,345.32,545.07,345.35,545.47Z" transform="translate(-59.89 -134.41)"/><path class="cls-11" d="M345.28,536a10.81,10.81,0,0,1-2.21-2.16h2.21Z" transform="translate(-59.89 -134.41)"/><path class="cls-11" d="M329.12,595.31a7.32,7.32,0,0,1-2.07,1.91c-.31.14-2.24-1.92-2.06-2.15a5.34,5.34,0,0,1,2.14-2A5.89,5.89,0,0,1,329.12,595.31Z" transform="translate(-59.89 -134.41)"/><path class="cls-10" d="M329.22,540.21c-.76.71-1.3,2-2.2,1.9s-1.58-1.09-2-2c-.15-.3,1.92-2.23,2.15-2A8.74,8.74,0,0,1,329.22,540.21Z" transform="translate(-59.89 -134.41)"/><path class="cls-10" d="M329.23,583c-.76.73-1.3,2-2.2,1.91s-1.56-1.09-2-2c-.15-.29,1.9-2.23,2.15-2.06A9.11,9.11,0,0,1,329.23,583Z" transform="translate(-59.89 -134.41)"/><path class="cls-10" d="M326.92,554.46c-.65-.58-1.8-1.18-1.84-2s1.12-1.52,1.9-2.1c.25-.18,2.17,1.73,2.15,2.09A6.83,6.83,0,0,1,326.92,554.46Z" transform="translate(-59.89 -134.41)"/><path class="cls-10" d="M338.39,573.77a8.61,8.61,0,0,1-2.17,2.06c-.28.15-2.26-1.9-2.09-2.13.59-.78,1.21-2,2.11-1.9S337.69,573,338.39,573.77Z" transform="translate(-59.89 -134.41)"/><path class="cls-10" d="M317.94,571.51c.71.76,1.41,1.44,2,2.19.19.22-1.8,2.29-2.07,2.13-.85-.51-1.93-1.19-1.95-2.06S317.12,572.32,317.94,571.51Z" transform="translate(-59.89 -134.41)"/><path class="cls-11" d="M323.06,589.05c0,.29-2,2.22-2.19,2.08a5.16,5.16,0,0,1-1.95-2.14c-.11-.32,1.73-2,2.06-2A7.52,7.52,0,0,1,323.06,589.05Z" transform="translate(-59.89 -134.41)"/><path class="cls-11" d="M333,587c.46,0,2.31,1.64,2.21,2a5.22,5.22,0,0,1-1.94,2.15c-.18.15-2.31-1.82-2.19-2.06A7.45,7.45,0,0,1,333,587Z" transform="translate(-59.89 -134.41)"/><path class="cls-11" d="M344.32,537.05a5.82,5.82,0,0,1-2,2.08c-.3,0-2.18-1.75-2.06-2a6,6,0,0,1,2-2.1C342.46,534.89,344.3,536.75,344.32,537.05Z" transform="translate(-59.89 -134.41)"/><path class="cls-11" d="M342.29,581.92c-.33,0-2.14-1.81-2-2.06a6.18,6.18,0,0,1,2-2.06c.18-.12,2,1.83,2,2.08A5.94,5.94,0,0,1,342.29,581.92Z" transform="translate(-59.89 -134.41)"/><path class="cls-10" d="M335.21,546.3a5.88,5.88,0,0,1-2.09,2,5.8,5.8,0,0,1-2-2.09,5.88,5.88,0,0,1,2.09-2A6,6,0,0,1,335.21,546.3Z" transform="translate(-59.89 -134.41)"/><path class="cls-11" d="M342.37,569.66a6,6,0,0,1-2.11-2c0-.31,1.76-2.17,2-2.05a4.94,4.94,0,0,1,2,1.91C344.45,567.81,342.76,569.62,342.37,569.66Z" transform="translate(-59.89 -134.41)"/><path class="cls-10" d="M321,544.22a5.94,5.94,0,0,1,2,2.06,6,6,0,0,1-2.07,2,6.27,6.27,0,0,1-2-2.08A6.12,6.12,0,0,1,321,544.22Z" transform="translate(-59.89 -134.41)"/><path class="cls-11" d="M320,592.2a7.43,7.43,0,0,1-2.13,1.94,5.86,5.86,0,0,1-2-2.08c-.11-.23,1.74-2,2-2A7.15,7.15,0,0,1,320,592.2Z" transform="translate(-59.89 -134.41)"/><path class="cls-11" d="M332.2,592.14c0,.26-1.84,2.11-2.06,2a5.94,5.94,0,0,1-2.07-2A7.44,7.44,0,0,1,330,590,7.88,7.88,0,0,1,332.2,592.14Z" transform="translate(-59.89 -134.41)"/><path class="cls-11" d="M336.32,590a7.18,7.18,0,0,1,1.95,2.12,6.12,6.12,0,0,1-2.09,2c-.23.11-2.06-1.73-2.05-2A7.46,7.46,0,0,1,336.32,590Z" transform="translate(-59.89 -134.41)"/><path class="cls-11" d="M326,592.22a8.42,8.42,0,0,1-2.05,1.93,7.42,7.42,0,0,1-2.09-2,8.26,8.26,0,0,1,2.16-2.17A7.13,7.13,0,0,1,326,592.22Z" transform="translate(-59.89 -134.41)"/><path class="cls-10" d="M339.34,578.84c-.46,0-2.29-1.78-2.13-2a5.78,5.78,0,0,1,2.06-2c.2-.11,2.14,1.83,2,2A8.06,8.06,0,0,1,339.34,578.84Z" transform="translate(-59.89 -134.41)"/><path class="cls-10" d="M339.13,560.52a7.52,7.52,0,0,1-1.92-2.08c-.13-.28,1.76-2.09,2.05-2a5.5,5.5,0,0,1,2,2A6.67,6.67,0,0,1,339.13,560.52Z" transform="translate(-59.89 -134.41)"/><path class="cls-10" d="M339.13,562.53a7.55,7.55,0,0,1,2.18,2,6.79,6.79,0,0,1-2,2.07c-.35,0-2.19-1.66-2.06-2A7.41,7.41,0,0,1,339.13,562.53Z" transform="translate(-59.89 -134.41)"/><path class="cls-10" d="M339.26,568.69a6.43,6.43,0,0,1,2,2c.13.19-1.69,2.16-1.94,2.06a5.37,5.37,0,0,1-2.1-2C337.05,570.56,338.81,568.73,339.26,568.69Z" transform="translate(-59.89 -134.41)"/><path class="cls-10" d="M330,565.63c.48,0,2.13,1.71,2.11,2.06a5.91,5.91,0,0,1-2.06,2c-.34,0-2.14-1.81-2-2.05A7.8,7.8,0,0,1,330,565.63Z" transform="translate(-59.89 -134.41)"/><path class="cls-10" d="M332.11,537.06a5.29,5.29,0,0,1-2,2.07c-.28,0-2.13-1.87-2-2.08a4.9,4.9,0,0,1,1.95-2C330.31,534.93,332.09,536.68,332.11,537.06Z" transform="translate(-59.89 -134.41)"/><path class="cls-10" d="M330.1,553.38c.35,0,2.13,1.77,2,2.07a4.64,4.64,0,0,1-1.94,2c-.29.16-2.09-1.57-2.09-1.95A7.34,7.34,0,0,1,330.1,553.38Z" transform="translate(-59.89 -134.41)"/><path class="cls-10" d="M314.79,572.75c-.39,0-2.07-1.85-1.9-2.12a4.59,4.59,0,0,1,2-1.91c.31-.13,2.06,1.69,2,2A7.6,7.6,0,0,1,314.79,572.75Z" transform="translate(-59.89 -134.41)"/><path class="cls-10" d="M319.88,549.3c0,.37-1.73,2.21-2,2-.84-.5-1.92-1.18-1.94-2.06s1-1.47,1.86-1.94C318.09,547.17,319.86,548.9,319.88,549.3Z" transform="translate(-59.89 -134.41)"/><path class="cls-10" d="M330,547.31c.35,0,2.18,1.65,2.07,2a2.81,2.81,0,0,1-1.86,1.94c-1,.12-1.5-1.09-2.13-1.82C327.91,549.19,329.62,547.35,330,547.31Z" transform="translate(-59.89 -134.41)"/><path class="cls-10" d="M338.37,549.36c-.77.7-1.26,1.63-2.23,2-.34.12-2-1.77-1.9-2.11s1.85-2.05,2.14-1.86A6.51,6.51,0,0,1,338.37,549.36Z" transform="translate(-59.89 -134.41)"/><path class="cls-10" d="M326.06,537.09a7.51,7.51,0,0,1-2.1,2c-.39,0-2.11-1.81-1.94-2.09a4.69,4.69,0,0,1,2-1.94C324.29,535,326.07,536.74,326.06,537.09Z" transform="translate(-59.89 -134.41)"/><path class="cls-10" d="M314.84,554.35c-.41,0-2.13-1.79-2-2.09.46-.81,1.13-1.89,1.94-1.86s1.56,1.11,2.06,2C317.05,552.64,315.22,554.37,314.84,554.35Z" transform="translate(-59.89 -134.41)"/><path class="cls-10" d="M333.19,572.77c-.33,0-2.17-1.7-2-2a4.72,4.72,0,0,1,1.9-2c.26-.17,2.08,1.5,2.12,1.89A7.44,7.44,0,0,1,333.19,572.77Z" transform="translate(-59.89 -134.41)"/><path class="cls-10" d="M323,558.48a5.38,5.38,0,0,1-2.05,2c-.3,0-2.11-1.89-2-2.11a4.93,4.93,0,0,1,2-1.95C321.19,556.32,323,558.11,323,558.48Z" transform="translate(-59.89 -134.41)"/><path class="cls-10" d="M315,562.54c.56.6,1.26,1.28,1.86,2,.18.23-1.7,2.12-2,2a4.41,4.41,0,0,1-2-1.92C312.72,564.37,314.42,562.56,315,562.54Z" transform="translate(-59.89 -134.41)"/><path class="cls-10" d="M336.09,563.63a7.49,7.49,0,0,1-1.82-1.93c-.18-.31,1.44-2.07,1.88-2.12a5.05,5.05,0,0,1,2.12,1.93A6.62,6.62,0,0,1,336.09,563.63Z" transform="translate(-59.89 -134.41)"/><path class="cls-10" d="M316.91,576.77c0,.33-1.69,2.17-2,2.05a4.5,4.5,0,0,1-2-1.9c-.18-.26,1.48-2.09,1.88-2.13A7.45,7.45,0,0,1,316.91,576.77Z" transform="translate(-59.89 -134.41)"/><path class="cls-10" d="M316.91,583.12c-.59.56-1.27,1.27-2,1.87-.23.19-2.14-1.69-2-2a4.38,4.38,0,0,1,1.9-2C315.06,580.81,316.88,582.5,316.91,583.12Z" transform="translate(-59.89 -134.41)"/><path class="cls-10" d="M317.75,583.94c.42-.05,2.23,1.68,2.11,2a4.17,4.17,0,0,1-1.9,2c-.28.17-2.23-1.54-2.1-1.88C316.21,585.09,317.13,584.6,317.75,583.94Z" transform="translate(-59.89 -134.41)"/><path class="cls-10" d="M326,586c0,.38-1.8,2.11-2.09,2a4.43,4.43,0,0,1-1.93-2c-.14-.32,1.62-2.09,2-2.07A7.62,7.62,0,0,1,326,586Z" transform="translate(-59.89 -134.41)"/><path class="cls-10" d="M330,583.93c.46,0,2.22,1.78,2.07,2.08a4.59,4.59,0,0,1-1.95,2c-.29.16-2.19-1.65-2-2A7.1,7.1,0,0,1,330,583.93Z" transform="translate(-59.89 -134.41)"/><path class="cls-10" d="M317.71,541.14c.6,0,2.3,1.83,2.13,2.12a4.24,4.24,0,0,1-2,1.91c-.33.13-2.21-1.75-2-2C316.44,542.42,317.15,541.74,317.71,541.14Z" transform="translate(-59.89 -134.41)"/><path class="cls-10" d="M319.87,561.54c0,.37-1.7,2.21-2,2.05-.85-.49-1.9-1.19-1.95-2.06s1-1.47,1.85-1.94C318.09,559.41,319.85,561.11,319.87,561.54Z" transform="translate(-59.89 -134.41)"/><path class="cls-10" d="M326,543.08c0,.44-1.73,2.25-2,2.11a4.56,4.56,0,0,1-2-1.93c-.17-.3,1.58-2.23,1.91-2.09A6.77,6.77,0,0,1,326,543.08Z" transform="translate(-59.89 -134.41)"/><path class="cls-10" d="M332.1,543.21c0,.39-1.79,2.14-2.07,2a4.9,4.9,0,0,1-1.95-2c-.11-.21,1.74-2.07,2-2.08A5.33,5.33,0,0,1,332.1,543.21Z" transform="translate(-59.89 -134.41)"/><path class="cls-10" d="M336.34,541.15a7.22,7.22,0,0,1,1.9,2.09c.14.31-1.78,2.08-2.07,1.92a4.36,4.36,0,0,1-1.93-2C334.1,542.88,335.87,541.13,336.34,541.15Z" transform="translate(-59.89 -134.41)"/><path class="cls-10" d="M320.9,578.85c-.38,0-2.13-1.86-1.95-2.09.6-.77,1.17-1.94,2.12-1.86.78.08,1.53,1,1.89,1.93C323.08,577.14,321.25,578.87,320.9,578.85Z" transform="translate(-59.89 -134.41)"/><path class="cls-10" d="M335.17,576.91c0,.4-1.86,2.06-2.13,1.88a4.65,4.65,0,0,1-1.9-2c-.12-.31,1.72-2,2.06-2A6.88,6.88,0,0,1,335.17,576.91Z" transform="translate(-59.89 -134.41)"/><path class="cls-10" d="M323.93,551.36c-.38,0-2.07-1.86-1.9-2.12a4.58,4.58,0,0,1,2-1.92c.3-.13,2.06,1.71,2,2A7.77,7.77,0,0,1,323.93,551.36Z" transform="translate(-59.89 -134.41)"/><path class="cls-10" d="M322,579.88c0-.37,1.8-2.16,2.07-2a5.15,5.15,0,0,1,2,1.95c.11.2-1.71,2.09-2,2.11A5.43,5.43,0,0,1,322,579.88Z" transform="translate(-59.89 -134.41)"/><path class="cls-10" d="M324,553.39a7.34,7.34,0,0,1,2.09,2c0,.36-1.76,2.15-2.06,2a4.72,4.72,0,0,1-2-1.94C321.86,555.2,323.58,553.4,324,553.39Z" transform="translate(-59.89 -134.41)"/><path class="cls-10" d="M316.9,540.28a7,7,0,0,1-2.09,1.91c-.32.15-2.09-1.78-1.92-2.07a4.43,4.43,0,0,1,2-1.94C315.17,538,316.92,539.82,316.9,540.28Z" transform="translate(-59.89 -134.41)"/><path class="cls-10" d="M335.17,558.41a7.21,7.21,0,0,1-2,2.12c-.34,0-2.16-1.74-2-2a4.64,4.64,0,0,1,1.91-2C333.34,556.33,335.15,558,335.17,558.41Z" transform="translate(-59.89 -134.41)"/><path class="cls-10" d="M330.1,577.85c.37,0,2.15,1.79,2,2.07a5,5,0,0,1-2,2c-.2.11-2.08-1.71-2.1-2A5.5,5.5,0,0,1,330.1,577.85Z" transform="translate(-59.89 -134.41)"/><path class="cls-10" d="M322.94,570.68c0,.36-1.72,2.23-2,2.08-.84-.53-1.91-1.18-2-2.08s1-1.47,1.85-1.95C321.16,568.56,322.94,570.28,322.94,570.68Z" transform="translate(-59.89 -134.41)"/><path class="cls-10" d="M336.23,577.89a7.21,7.21,0,0,1,2,2,7.75,7.75,0,0,1-2.11,2,7.47,7.47,0,0,1-2-2A7.2,7.2,0,0,1,336.23,577.89Z" transform="translate(-59.89 -134.41)"/><path class="cls-10" d="M320.91,580.83a7.55,7.55,0,0,1,2,2.07,7.24,7.24,0,0,1-2,2.1,7.88,7.88,0,0,1-2-2A8.32,8.32,0,0,1,320.91,580.83Z" transform="translate(-59.89 -134.41)"/><path class="cls-10" d="M320,537.09a7.76,7.76,0,0,1-2.05,2,7.83,7.83,0,0,1-2.11-2,7.08,7.08,0,0,1,2.05-2A7.68,7.68,0,0,1,320,537.09Z" transform="translate(-59.89 -134.41)"/><path class="cls-10" d="M333.22,585a6.79,6.79,0,0,1-2.06-2,7.35,7.35,0,0,1,2-2.13,7.71,7.71,0,0,1,2.06,2A7.77,7.77,0,0,1,333.22,585Z" transform="translate(-59.89 -134.41)"/><path class="cls-10" d="M321,538.06a7.46,7.46,0,0,1,2,2.11,7.08,7.08,0,0,1-2,2,7.91,7.91,0,0,1-2-2.11A7.61,7.61,0,0,1,321,538.06Z" transform="translate(-59.89 -134.41)"/><path class="cls-10" d="M335.18,540.17a7.61,7.61,0,0,1-2,2,6.76,6.76,0,0,1-2-2.11,7.37,7.37,0,0,1,2-2.05A8.14,8.14,0,0,1,335.18,540.17Z" transform="translate(-59.89 -134.41)"/><path class="cls-11" d="M344.3,543.18a7.48,7.48,0,0,1-2,2.12,7.26,7.26,0,0,1-2-2.11,6.9,6.9,0,0,1,1.94-2C342.43,541.06,344.29,542.87,344.3,543.18Z" transform="translate(-59.89 -134.41)"/><path class="cls-10" d="M329.12,546.3a7.49,7.49,0,0,1-2.13,2,7.13,7.13,0,0,1-2-2,7.74,7.74,0,0,1,2.12-2A7.16,7.16,0,0,1,329.12,546.3Z" transform="translate(-59.89 -134.41)"/><path class="cls-11" d="M342.32,584c.27,0,2.08,1.9,2,2.11a6.69,6.69,0,0,1-1.94,2c-.18.13-2-1.73-2-2A7.42,7.42,0,0,1,342.32,584Z" transform="translate(-59.89 -134.41)"/><path class="cls-11" d="M314.82,587a7.69,7.69,0,0,1,2.09,2,7.52,7.52,0,0,1-2.08,2,7.84,7.84,0,0,1-2.09-2A7.66,7.66,0,0,1,314.82,587Z" transform="translate(-59.89 -134.41)"/><path class="cls-11" d="M344.31,549.35c0,.31-1.89,2.09-2.08,1.95a6.87,6.87,0,0,1-1.92-2c-.11-.2,1.75-2.09,2-2.09A7.63,7.63,0,0,1,344.31,549.35Z" transform="translate(-59.89 -134.41)"/><path class="cls-11" d="M329.11,589.09a7.19,7.19,0,0,1-2.12,2c-.3,0-2.13-1.89-2-2a5.17,5.17,0,0,1,2.12-2C327.38,587,329.14,588.83,329.11,589.09Z" transform="translate(-59.89 -134.41)"/><path class="cls-10" d="M322.94,552.38a7.69,7.69,0,0,1-2,2.09,8.12,8.12,0,0,1-2-2.09,8.12,8.12,0,0,1,2-2.09A7.55,7.55,0,0,1,322.94,552.38Z" transform="translate(-59.89 -134.41)"/><path class="cls-11" d="M341.32,589c0,.28-1.78,2.14-2,2a5.78,5.78,0,0,1-2-1.88c-.15-.18,1.6-2.07,1.91-2.12A7.42,7.42,0,0,1,341.32,589Z" transform="translate(-59.89 -134.41)"/><path class="cls-10" d="M333.2,554.47a7.73,7.73,0,0,1-2-2.07,7.2,7.2,0,0,1,2-2.1,7.51,7.51,0,0,1,2,2.05A8.32,8.32,0,0,1,333.2,554.47Z" transform="translate(-59.89 -134.41)"/><path class="cls-10" d="M329.12,558.47a7.57,7.57,0,0,1-2,2,8,8,0,0,1-2.12-2,7.24,7.24,0,0,1,2-2A7,7,0,0,1,329.12,558.47Z" transform="translate(-59.89 -134.41)"/><path class="cls-10" d="M320,555.42a7.28,7.28,0,0,1-2.11,2,6.88,6.88,0,0,1-2.06-2,8.67,8.67,0,0,1,2.11-2A7.8,7.8,0,0,1,320,555.42Z" transform="translate(-59.89 -134.41)"/><path class="cls-11" d="M342.3,553.41c.29,0,2.1,1.85,2,2.08a6.05,6.05,0,0,1-1.91,2c-.18.13-2-1.69-2.06-2A7.24,7.24,0,0,1,342.3,553.41Z" transform="translate(-59.89 -134.41)"/><path class="cls-11" d="M344.3,592.12c0,.31-1.86,2.11-2.06,2a7,7,0,0,1-1.93-2,7.19,7.19,0,0,1,2-2.09A7.55,7.55,0,0,1,344.3,592.12Z" transform="translate(-59.89 -134.41)"/><path class="cls-10" d="M336,539.1a6.9,6.9,0,0,1-1.88-2.06c-.1-.25,1.85-2,2.11-1.94a7,7,0,0,1,2,2.07A6.6,6.6,0,0,1,336,539.1Z" transform="translate(-59.89 -134.41)"/><path class="cls-11" d="M344.29,561.47c0,.24-1.76,2.22-2,2.11a7.35,7.35,0,0,1-2-1.92c-.15-.18,1.55-2.09,1.88-2.15A6.35,6.35,0,0,1,344.29,561.47Z" transform="translate(-59.89 -134.41)"/><path class="cls-11" d="M322.94,595.15c0,.3-1.82,2.22-2,2.08a7,7,0,0,1-2-2c-.13-.19,1.65-2.13,1.93-2.15A6.4,6.4,0,0,1,322.94,595.15Z" transform="translate(-59.89 -134.41)"/><path class="cls-10" d="M320.13,567.72c-.95.65-1.37,2-2.35,1.82-.78-.17-2-1.1-1.78-2,.15-.75,1.08-2,2-1.77C318.81,565.92,319.4,567,320.13,567.72Z" transform="translate(-59.89 -134.41)"/><path class="cls-11" d="M333.2,593.09a7.61,7.61,0,0,1,2,2.11,7.3,7.3,0,0,1-2,2,7.2,7.2,0,0,1-2-2.11A6.81,6.81,0,0,1,333.2,593.09Z" transform="translate(-59.89 -134.41)"/><path class="cls-10" d="M338.28,567.62a7.51,7.51,0,0,1-2,2,7.54,7.54,0,0,1-2.11-2,7.48,7.48,0,0,1,2.05-2A8.11,8.11,0,0,1,338.28,567.62Z" transform="translate(-59.89 -134.41)"/><path class="cls-10" d="M332.08,573.82a7.07,7.07,0,0,1-2.05,2,8.31,8.31,0,0,1-2-2.13,7.43,7.43,0,0,1,2.06-2A6.8,6.8,0,0,1,332.08,573.82Z" transform="translate(-59.89 -134.41)"/><path class="cls-11" d="M344.29,573.82c0,.32-1.87,2.11-2.05,2a6.78,6.78,0,0,1-1.92-2,7.6,7.6,0,0,1,2-2.1A7.58,7.58,0,0,1,344.29,573.82Z" transform="translate(-59.89 -134.41)"/><path class="cls-10" d="M329.12,576.83a6.61,6.61,0,0,1-2.11,2,7,7,0,0,1-2-2,7.93,7.93,0,0,1,2.12-2A7.57,7.57,0,0,1,329.12,576.83Z" transform="translate(-59.89 -134.41)"/><path class="cls-10" d="M320,579.87a7.62,7.62,0,0,1-2.05,2,8.15,8.15,0,0,1-2.12-2,7.15,7.15,0,0,1,2.06-2A7.55,7.55,0,0,1,320,579.87Z" transform="translate(-59.89 -134.41)"/><path class="cls-11" d="M339.22,580.86c.3,0,2.08,1.84,2,2.08a4.16,4.16,0,0,1-1.93,1.91c-.31.15-2.06-1.57-2.05-1.94A7.44,7.44,0,0,1,339.22,580.86Z" transform="translate(-59.89 -134.41)"/><path class="cls-10" d="M334.21,555.44a5.37,5.37,0,0,1,2-2.05c.29,0,2.13,1.85,2,2.05a6.32,6.32,0,0,1-2,2C336,557.57,334.22,555.83,334.21,555.44Z" transform="translate(-59.89 -134.41)"/><path class="cls-10" d="M326,567.6c0,.27-1.76,2.15-2,2a4.57,4.57,0,0,1-2-1.89c-.18-.26,1.47-2.07,1.87-2.11A6.93,6.93,0,0,1,326,567.6Z" transform="translate(-59.89 -134.41)"/><path class="cls-10" d="M341.24,546.25c0,.36-1.75,2.16-2,2a6.59,6.59,0,0,1-2-1.92,7,7,0,0,1,1.95-2.09A5.49,5.49,0,0,1,341.24,546.25Z" transform="translate(-59.89 -134.41)"/><path class="cls-10" d="M326,561.46a7.92,7.92,0,0,1-1.95,2.14c-.28,0-2.14-1.75-2-2a4.27,4.27,0,0,1,1.87-2C324.17,559.42,326,561.07,326,561.46Z" transform="translate(-59.89 -134.41)"/><path class="cls-10" d="M330.12,563.59a7.11,7.11,0,0,1-2.06-2c0-.35,1.74-2.14,2-2a4.6,4.6,0,0,1,2,1.92C332.2,561.7,330.43,563.57,330.12,563.59Z" transform="translate(-59.89 -134.41)"/><path class="cls-10" d="M323,564.57c0,.35-1.73,2.18-2,2a5,5,0,0,1-2-1.92c-.12-.2,1.65-2.11,1.94-2.13A6.75,6.75,0,0,1,323,564.57Z" transform="translate(-59.89 -134.41)"/><path class="cls-11" d="M341.2,595.29a5.87,5.87,0,0,1-1.92,1.81c-.34.15-2.2-1.62-2-2a6,6,0,0,1,1.91-2C339.35,593,341.18,594.78,341.2,595.29Z" transform="translate(-59.89 -134.41)"/><path class="cls-10" d="M335.18,564.59c0,.35-1.75,2.13-2,2a4.71,4.71,0,0,1-2-1.92c-.13-.22,1.65-2.09,1.95-2.11A7.37,7.37,0,0,1,335.18,564.59Z" transform="translate(-59.89 -134.41)"/><path class="cls-10" d="M314.83,560.52c-.36,0-2.11-1.78-2-2.06a4.6,4.6,0,0,1,1.93-2c.23-.12,2.09,1.68,2.09,2A7.15,7.15,0,0,1,314.83,560.52Z" transform="translate(-59.89 -134.41)"/><path class="cls-10" d="M326,573.73c0,.35-1.72,2.14-2,2a4.57,4.57,0,0,1-2-1.9c-.13-.22,1.63-2.09,1.94-2.12A7.2,7.2,0,0,1,326,573.73Z" transform="translate(-59.89 -134.41)"/><path class="cls-10" d="M316.9,546.28a7,7,0,0,1-2.11,2c-.39,0-2.08-1.83-1.92-2.09a4.68,4.68,0,0,1,2-1.91C315.08,544.15,316.91,546,316.9,546.28Z" transform="translate(-59.89 -134.41)"/><path class="cls-10" d="M341.32,540.12a6.68,6.68,0,0,1-2,2c-.29.15-2.08-1.53-2.09-1.9s1.72-2.12,2-2C340.14,538.56,340.63,539.39,341.32,540.12Z" transform="translate(-59.89 -134.41)"/><path class="cls-10" d="M341.3,552.37a6.74,6.74,0,0,1-2,2c-.29.15-2.08-1.54-2.09-1.92s1.72-2.11,2-2A6.35,6.35,0,0,1,341.3,552.37Z" transform="translate(-59.89 -134.41)"/><path class="cls-10" d="M329,570.7c0,.37-1.7,2.19-2,2a4.62,4.62,0,0,1-1.94-2c-.17-.32,1.59-2.06,2-2A6,6,0,0,1,329,570.7Z" transform="translate(-59.89 -134.41)"/><path class="cls-10" d="M329,564.66a5.52,5.52,0,0,1-1.91,1.87c-.31.18-2.16-1.6-2-2a4.7,4.7,0,0,1,1.89-2C327.24,562.39,329,564.17,329,564.66Z" transform="translate(-59.89 -134.41)"/><path class="cls-11" d="M314.8,592.84c.77.82,1.76,1.43,2,2.27.2.68-.92,1.73-1.53,1.64a2.69,2.69,0,0,1-1.87-2.13C313.25,593.93,314.27,593.58,314.8,592.84Z" transform="translate(-59.89 -134.41)"/><path class="cls-11" d="M330.1,599c-.71-.2-2,.37-1.94-.69,0-.89,1.12-1.53,1.92-2.09.19-.13,2.15,1.7,2.08,2C331.84,599.34,330.82,598.77,330.1,599Z" transform="translate(-59.89 -134.41)"/><path class="cls-11" d="M324,598.94c-.79-.11-1.71.3-2.07-.74-.09-.26,1.82-2.13,2.05-2,.87.47,1.95,1.2,2,2C326,599.43,324.62,598.69,324,598.94Z" transform="translate(-59.89 -134.41)"/><path class="cls-11" d="M336.18,598.94c-.74-.08-1.64.28-2-.72-.1-.25,1.76-2,2.06-2s2.15,1.81,2,2.06C337.82,599.21,336.92,598.86,336.18,598.94Z" transform="translate(-59.89 -134.41)"/><path class="cls-11" d="M342.13,598.93c-.55-.17-1.79.41-1.72-.74.06-.82,1.09-1.46,1.88-2,.22-.14,2,1.75,2,2C344.26,598.8,343.87,598.93,342.13,598.93Z" transform="translate(-59.89 -134.41)"/><path class="cls-11" d="M336.82,584.48c1.8,1.52,1.79,1.5.27,2.93s-1.75-.55-2.56-1A5.3,5.3,0,0,0,336.82,584.48Z" transform="translate(-59.89 -134.41)"/><path class="cls-10" d="M316.94,533.92c-1.77,2.65-2.38,2.64-4.15,0Z" transform="translate(-59.89 -134.41)"/><path class="cls-10" d="M335.18,533.88c-1.62,2.74-2,2.75-4.2.07A21.9,21.9,0,0,1,335.18,533.88Z" transform="translate(-59.89 -134.41)"/><path class="cls-10" d="M341.37,533.85c-2,2.75-2.3,2.75-4.21.12A20.87,20.87,0,0,1,341.37,533.85Z" transform="translate(-59.89 -134.41)"/><path class="cls-10" d="M323,534c-1.94,2.57-2.2,2.56-4,.09A8,8,0,0,1,323,534Z" transform="translate(-59.89 -134.41)"/><path class="cls-10" d="M329.15,533.93c-2,2.61-2.28,2.61-4.16,0Z" transform="translate(-59.89 -134.41)"/><path class="cls-11" d="M316.44,597.59c1.29-1.59,2.57-1.45,3.39.32.28.6-.1.76-.56.74A4.78,4.78,0,0,1,316.44,597.59Z" transform="translate(-59.89 -134.41)"/><path class="cls-11" d="M345.26,574.81c0,1.32,0,2.64,0,4C342.62,576.41,342.76,577.13,345.26,574.81Z" transform="translate(-59.89 -134.41)"/><path class="cls-11" d="M345.28,556.52c0,1.32,0,2.65,0,4a.66.66,0,0,1-.15,0C342.93,558.16,342.48,559,345.28,556.52Z" transform="translate(-59.89 -134.41)"/><path class="cls-11" d="M345.28,568.76l0,4a1.74,1.74,0,0,1-.26-.15C342.88,570.62,342.88,570.62,345.28,568.76Z" transform="translate(-59.89 -134.41)"/><path class="cls-11" d="M345.25,562.57c0,1.32,0,2.64,0,4C342.52,564.12,342.87,564.87,345.25,562.57Z" transform="translate(-59.89 -134.41)"/><path class="cls-11" d="M345.29,581c0,1.32,0,2.64-.05,4a1.13,1.13,0,0,1-.26-.16C342.89,582.85,342.89,582.84,345.29,581Z" transform="translate(-59.89 -134.41)"/><path class="cls-11" d="M345.23,587.14v3.71C342.82,589.21,342.82,589.08,345.23,587.14Z" transform="translate(-59.89 -134.41)"/><path class="cls-10" d="M312.05,551.19v-3.47C314.33,548.88,314.34,549.3,312.05,551.19Z" transform="translate(-59.89 -134.41)"/><path class="cls-10" d="M312,569.49v-3.56C314.39,567.31,314.41,567.71,312,569.49Z" transform="translate(-59.89 -134.41)"/><path class="cls-10" d="M312.06,581.82v-3.6C314.36,579.47,314.37,579.78,312.06,581.82Z" transform="translate(-59.89 -134.41)"/><path class="cls-10" d="M312.1,553.56c2.25,1.87,2.25,2,0,3.64Z" transform="translate(-59.89 -134.41)"/><path class="cls-10" d="M312.07,535.32c2.17,1.73,2.17,1.73.12,3.57A19.61,19.61,0,0,1,312.07,535.32Z" transform="translate(-59.89 -134.41)"/><path class="cls-11" d="M345.22,593.27v3.56C342.93,595.55,342.91,595.26,345.22,593.27Z" transform="translate(-59.89 -134.41)"/><path class="cls-10" d="M312.11,575.51a5.9,5.9,0,0,1-.07-.61c0-.88,0-1.76,0-2.66C314.24,573.18,314.28,573.74,312.11,575.51Z" transform="translate(-59.89 -134.41)"/><path class="cls-11" d="M345.29,550.47v3.82C342.9,552.49,342.9,552.25,345.29,550.47Z" transform="translate(-59.89 -134.41)"/><path class="cls-10" d="M312.11,544.91V541.8C314.33,542.79,314.33,543.25,312.11,544.91Z" transform="translate(-59.89 -134.41)"/><path class="cls-10" d="M312.15,587.74V584.5C314.33,585.81,314.33,585.91,312.15,587.74Z" transform="translate(-59.89 -134.41)"/><path class="cls-10" d="M312.11,563.17v-3.23C314.31,561.28,314.33,561.57,312.11,563.17Z" transform="translate(-59.89 -134.41)"/><path class="cls-11" d="M312.68,593.38a9.36,9.36,0,0,1-.68-3C314.14,591.69,314.19,591.9,312.68,593.38Z" transform="translate(-59.89 -134.41)"/><path class="cls-10" d="M336.82,584.48a5.3,5.3,0,0,1-2.29,1.95c-.77-1.39.81-1.51,1.25-2.23S336.56,584,336.82,584.48Z" transform="translate(-59.89 -134.41)"/><path class="cls-11" d="M422.35,298.8l18.14.07q0,6.92.07,13.82a.32.32,0,0,0-.2.18l-18.29.06c0-4.31,0-8.63.07-12.94C422.14,299.59,422,299.15,422.35,298.8Z" transform="translate(-59.89 -134.41)"/><path class="cls-11" d="M478.2,298.87l18.13-.06c.43.55.2,1.2.21,1.8,0,4.11,0,8.22.08,12.32H478.06Q478.14,305.9,478.2,298.87Z" transform="translate(-59.89 -134.41)"/><path class="cls-10" d="M422.35,298.8c3.83-5.23,7.75-10.4,11.44-15.73a5.4,5.4,0,0,1,5.12-2.56c14.2.12,28.39.07,42.58,0a2.49,2.49,0,0,1,2.33,1.15c4.13,5.73,8.33,11.41,12.51,17.11l-18.13.06H440.49Z" transform="translate(-59.89 -134.41)"/><path class="cls-12" d="M572.37,368.82A67.83,67.83,0,0,0,505.73,313c-3,0-6.08,0-9.11-.07H478.06c-2,0-4,.08-5.95.08H442.32c-.57,0-1.14-.06-1.71-.09h-.13l-.12-.05-18.29.06-4.55.08a99.09,99.09,0,0,0-16.59,1.15,67.57,67.57,0,0,0-55.63,66.42q0,12.18,0,24.37,0,27.92-.08,55.82l0,1c0,.1,0,.21,0,.31,0,.56,0,1.12,0,1.68a.3.3,0,0,1,0,.26c0,.36.07.73.07,1.09q0,30.78,0,61.57c0,1.18,0,2.36,0,3.55v-3.55l-4.06,0-28.64,0a8.29,8.29,0,0,1-2.81.12c-.92,0-1.17.31-1.13,1.18.06,1.47.07,2.94,0,4.4-.05,1.09.15,1.74,1.42,1.5,1-.18,1.07.32,1.07,1.16q-.08,27.21-.1,54.4c0,6.35,4.05,10.45,10.38,10.47q11.32,0,22.64,0c.87,0,1.35.07,1.28,1.15a21.55,21.55,0,0,0,.62,5.59,38.05,38.05,0,0,0,8.73,18.22,29.1,29.1,0,0,0,6.64,6.37,37,37,0,0,0,11.48,6.12c2.52.9,5.18,1.18,7.74,1.9H538.15c2.56-.73,5.22-1,7.74-1.89a37.4,37.4,0,0,0,11.48-6.13h0a29.26,29.26,0,0,0,6.64-6.36,38.09,38.09,0,0,0,7.48-13.25c.88-2.48,1.1-5.11,1.9-7.61V375.58C573.05,373.32,572.77,371.06,572.37,368.82ZM330,565.63c.48,0,2.13,1.71,2.11,2.06a5.91,5.91,0,0,1-2.06,2c-.34,0-2.14-1.81-2-2.05A7.8,7.8,0,0,1,330,565.63Zm-2.89.9c-.31.18-2.16-1.6-2-2a4.7,4.7,0,0,1,1.89-2c.25-.17,2,1.61,2,2.1A5.52,5.52,0,0,1,327.12,566.53Zm3-2.94a7.11,7.11,0,0,1-2.06-2c0-.35,1.74-2.14,2-2a4.6,4.6,0,0,1,2,1.92C332.2,561.7,330.43,563.57,330.12,563.59Zm-3-3.08a8,8,0,0,1-2.12-2,7.24,7.24,0,0,1,2-2,7,7,0,0,1,2.1,2A7.57,7.57,0,0,1,327.09,560.51Zm-1.06,1a7.92,7.92,0,0,1-1.95,2.14c-.28,0-2.14-1.75-2-2a4.27,4.27,0,0,1,1.87-2C324.17,559.42,326,561.07,326,561.46Zm-2.13,4.19a6.93,6.93,0,0,1,2.13,2c0,.27-1.76,2.15-2,2a4.57,4.57,0,0,1-2-1.89C321.85,567.5,323.5,565.69,323.9,565.65Zm.08,6.06a7.2,7.2,0,0,1,2.06,2c0,.35-1.72,2.14-2,2a4.57,4.57,0,0,1-2-1.9C321.91,573.61,323.67,571.74,324,571.71Zm1.11-.93c-.17-.32,1.59-2.06,2-2a6,6,0,0,1,1.95,2c0,.37-1.7,2.19-2,2A4.62,4.62,0,0,1,325.09,570.78Zm5,.93a6.8,6.8,0,0,1,2,2.11,7.07,7.07,0,0,1-2.05,2,8.31,8.31,0,0,1-2-2.13A7.43,7.43,0,0,1,330.12,571.71Zm1-1a4.72,4.72,0,0,1,1.9-2c.26-.17,2.08,1.5,2.12,1.89a7.44,7.44,0,0,1-2,2.14C332.86,572.8,331,571.07,331.15,570.75Zm0-6.09c-.13-.22,1.65-2.09,1.95-2.11a7.37,7.37,0,0,1,2.05,2c0,.35-1.75,2.13-2,2A4.71,4.71,0,0,1,331.18,564.66Zm2-4.13c-.34,0-2.16-1.74-2-2a4.64,4.64,0,0,1,1.91-2c.28-.17,2.09,1.52,2.11,1.91A7.21,7.21,0,0,1,333.17,560.53Zm0-6.06a7.73,7.73,0,0,1-2-2.07,7.2,7.2,0,0,1,2-2.1,7.51,7.51,0,0,1,2,2.05A8.32,8.32,0,0,1,333.2,554.47Zm-1.11,1a4.64,4.64,0,0,1-1.94,2c-.29.16-2.09-1.57-2.09-1.95a7.34,7.34,0,0,1,2-2.08C330.45,553.37,332.23,555.15,332.09,555.45Zm-5.17-1c-.65-.58-1.8-1.18-1.84-2s1.12-1.52,1.9-2.1c.25-.18,2.17,1.73,2.15,2.09A6.83,6.83,0,0,1,326.92,554.46Zm-.87,1c0,.36-1.76,2.15-2.06,2a4.72,4.72,0,0,1-2-1.94c-.16-.28,1.56-2.08,1.94-2.09A7.34,7.34,0,0,1,326.05,555.42Zm-5.12-.95a8.12,8.12,0,0,1-2-2.09,8.12,8.12,0,0,1,2-2.09,7.55,7.55,0,0,1,2,2.09A7.69,7.69,0,0,1,320.93,554.47Zm-.94.95a7.28,7.28,0,0,1-2.11,2,6.88,6.88,0,0,1-2.06-2,8.67,8.67,0,0,1,2.11-2A7.8,7.8,0,0,1,320,555.42Zm.92,1.05c.28-.15,2.06,1.64,2.07,2a5.38,5.38,0,0,1-2.05,2c-.3,0-2.11-1.89-2-2.11A4.93,4.93,0,0,1,320.91,556.47Zm0,6.08a6.75,6.75,0,0,1,2.07,2c0,.35-1.73,2.18-2,2a5,5,0,0,1-2-1.92C318.82,564.48,320.59,562.57,320.88,562.55Zm2.06,8.13c0,.36-1.72,2.23-2,2.08-.84-.53-1.91-1.18-2-2.08s1-1.47,1.85-1.95C321.16,568.56,322.94,570.28,322.94,570.68Zm-1.87,4.22c.78.08,1.53,1,1.89,1.93.12.31-1.72,2-2.06,2s-2.13-1.86-1.95-2.09C319.55,576,320.12,574.82,321.07,574.9Zm3,3a5.15,5.15,0,0,1,2,1.95c.11.2-1.71,2.09-2,2.11a5.43,5.43,0,0,1-2-2C322,579.51,323.78,577.72,324.05,577.86Zm.92-1.1a7.93,7.93,0,0,1,2.12-2,7.57,7.57,0,0,1,2,2,6.61,6.61,0,0,1-2.11,2A7,7,0,0,1,325,576.76Zm5.13,1.09c.37,0,2.15,1.79,2,2.07a5,5,0,0,1-2,2c-.2.11-2.08-1.71-2.1-2A5.5,5.5,0,0,1,330.1,577.85Zm1-1.06c-.12-.31,1.72-2,2.06-2a6.88,6.88,0,0,1,2,2.13c0,.4-1.86,2.06-2.13,1.88A4.65,4.65,0,0,1,331.14,576.79Zm5.09,1.1a7.21,7.21,0,0,1,2,2,7.75,7.75,0,0,1-2.11,2,7.47,7.47,0,0,1-2-2A7.2,7.2,0,0,1,336.23,577.89Zm0-2.06c-.28.15-2.26-1.9-2.09-2.13.59-.78,1.21-2,2.11-1.9s1.45,1.18,2.15,2A8.61,8.61,0,0,1,336.22,575.83Zm0-6.17a7.54,7.54,0,0,1-2.11-2,7.48,7.48,0,0,1,2.05-2,8.11,8.11,0,0,1,2.11,2A7.51,7.51,0,0,1,336.23,569.66Zm-.14-6a7.49,7.49,0,0,1-1.82-1.93c-.18-.31,1.44-2.07,1.88-2.12a5.05,5.05,0,0,1,2.12,1.93A6.62,6.62,0,0,1,336.09,563.63Zm-1.88-8.19a5.37,5.37,0,0,1,2-2.05c.29,0,2.13,1.85,2,2.05a6.32,6.32,0,0,1-2,2C336,557.57,334.22,555.83,334.21,555.44Zm1.93-4.1c-.34.12-2-1.77-1.9-2.11s1.85-2.05,2.14-1.86a6.51,6.51,0,0,1,2,2C337.6,550.06,337.11,551,336.14,551.34Zm-3-3a5.8,5.8,0,0,1-2-2.09,5.88,5.88,0,0,1,2.09-2,6,6,0,0,1,2,2.09A5.88,5.88,0,0,1,333.12,548.3Zm-1,1a2.81,2.81,0,0,1-1.86,1.94c-1,.12-1.5-1.09-2.13-1.82-.19-.23,1.52-2.07,1.92-2.11S332.2,549,332.09,549.3Zm-5.1-1a7.13,7.13,0,0,1-2-2,7.74,7.74,0,0,1,2.12-2,7.16,7.16,0,0,1,2,2A7.49,7.49,0,0,1,327,548.26Zm-.93,1.1a7.77,7.77,0,0,1-2.13,2c-.38,0-2.07-1.86-1.9-2.13a4.61,4.61,0,0,1,2-1.91C324.33,547.19,326.09,549,326.06,549.36Zm-5.15-1.05a6.27,6.27,0,0,1-2-2.08,6.12,6.12,0,0,1,2.07-2,5.94,5.94,0,0,1,2,2.06A6,6,0,0,1,320.91,548.31Zm-1,1c0,.37-1.73,2.21-2,2-.84-.5-1.92-1.18-1.94-2.06s1-1.47,1.86-1.94C318.09,547.17,319.86,548.9,319.88,549.3Zm-5.09-1c-.39,0-2.08-1.83-1.92-2.09a4.68,4.68,0,0,1,2-1.91c.23-.11,2.06,1.76,2,2A7,7,0,0,1,314.79,548.26Zm0,2.14c.88,0,1.56,1.11,2.06,2,.17.29-1.66,2-2,2s-2.13-1.79-2-2.09C313.34,551.45,314,550.37,314.82,550.4Zm2.07,8.08a7.15,7.15,0,0,1-2.06,2c-.36,0-2.11-1.78-2-2.06a4.6,4.6,0,0,1,1.93-2C315,556.39,316.89,558.19,316.89,558.48Zm.9,1.11c.3-.18,2.06,1.52,2.08,1.95s-1.7,2.21-2,2.05c-.85-.49-1.9-1.19-1.95-2.06S317,560.06,317.79,559.59Zm.25,6.17c.77.16,1.36,1.24,2.09,2-.95.65-1.37,2-2.35,1.82-.78-.17-2-1.1-1.78-2C316.15,566.78,317.08,565.57,318,565.76Zm-.1,5.75c.71.76,1.41,1.44,2,2.19.19.22-1.8,2.29-2.07,2.13-.85-.51-1.93-1.19-1.95-2.06S317.12,572.32,317.94,571.51Zm2.05,8.36a7.62,7.62,0,0,1-2.05,2,8.15,8.15,0,0,1-2.12-2,7.15,7.15,0,0,1,2.06-2A7.55,7.55,0,0,1,320,579.87Zm-3.08,3.25c-.59.56-1.27,1.27-2,1.87-.23.19-2.14-1.69-2-2a4.38,4.38,0,0,1,1.9-2C315.06,580.81,316.88,582.5,316.91,583.12Zm.84.82c.42-.05,2.23,1.68,2.11,2a4.17,4.17,0,0,1-1.9,2c-.28.17-2.23-1.54-2.1-1.88C316.21,585.09,317.13,584.6,317.75,583.94Zm1.18-1a8.45,8.45,0,0,1,2-2.11,7.55,7.55,0,0,1,2,2.07,7.24,7.24,0,0,1-2,2.1A7.77,7.77,0,0,1,318.93,582.94Zm5.08,1a7.62,7.62,0,0,1,2,2.09c0,.38-1.8,2.11-2.09,2a4.43,4.43,0,0,1-1.93-2C321.88,585.67,323.64,583.9,324,583.92Zm1-1c-.15-.29,1.9-2.23,2.15-2.06a9.11,9.11,0,0,1,2.09,2.11c-.76.73-1.3,2-2.2,1.91S325.47,583.8,325,582.93Zm5,1c.46,0,2.22,1.78,2.07,2.08a4.59,4.59,0,0,1-1.95,2c-.29.16-2.19-1.65-2-2A7.1,7.1,0,0,1,330,583.93Zm1.15-.95a7.35,7.35,0,0,1,2-2.13,7.71,7.71,0,0,1,2.06,2,7.77,7.77,0,0,1-2,2.13A6.79,6.79,0,0,1,331.16,583Zm4.62,1.22c.38-.61.78-.17,1,.28,1.8,1.52,1.79,1.5.27,2.93s-1.75-.55-2.56-1C333.76,585,335.34,584.92,335.78,584.2Zm1.42-1.29a7.44,7.44,0,0,1,2-2c.3,0,2.08,1.84,2,2.08a4.16,4.16,0,0,1-1.93,1.91C338.94,585,337.19,583.28,337.2,582.91Zm2.14-4.07c-.46,0-2.29-1.78-2.13-2a5.78,5.78,0,0,1,2.06-2c.2-.11,2.14,1.83,2,2A8.06,8.06,0,0,1,339.34,578.84Zm0-6.1a5.37,5.37,0,0,1-2.1-2c-.17-.21,1.59-2,2-2.08a6.43,6.43,0,0,1,2,2C341.39,570.87,339.57,572.84,339.32,572.74Zm-2.1-8.11a7.41,7.41,0,0,1,1.91-2.1,7.55,7.55,0,0,1,2.18,2,6.79,6.79,0,0,1-2,2.07C338.93,566.61,337.09,564.93,337.22,564.63Zm0-6.19c-.13-.28,1.76-2.09,2.05-2a5.5,5.5,0,0,1,2,2,6.67,6.67,0,0,1-2.17,2A7.52,7.52,0,0,1,337.21,558.44Zm0-6c0-.35,1.72-2.11,2-2a6.35,6.35,0,0,1,2.06,2,6.74,6.74,0,0,1-2,2C339,554.47,337.22,552.78,337.21,552.4Zm2-4.15a6.59,6.59,0,0,1-2-1.92,7,7,0,0,1,1.95-2.09,5.49,5.49,0,0,1,2.05,2C341.25,546.61,339.49,548.41,339.22,548.25Zm-2-8.08c0-.36,1.72-2.12,2-2,.89.37,1.38,1.19,2.07,1.93a6.68,6.68,0,0,1-2,2C339,542.22,337.22,540.54,337.21,540.17Zm1,3.07c.14.31-1.78,2.08-2.07,1.92a4.36,4.36,0,0,1-1.93-2c-.14-.32,1.63-2.07,2.1-2.05A7.22,7.22,0,0,1,338.24,543.24Zm-5.1-1a6.76,6.76,0,0,1-2-2.11,7.37,7.37,0,0,1,2-2.05,8.14,8.14,0,0,1,2,2.12A7.61,7.61,0,0,1,333.14,542.21Zm-1,1c0,.39-1.79,2.14-2.07,2a4.9,4.9,0,0,1-1.95-2c-.11-.21,1.74-2.07,2-2.08A5.33,5.33,0,0,1,332.1,543.21Zm-5.08-1.1c-.84-.07-1.58-1.09-2-2-.15-.3,1.92-2.23,2.15-2a8.74,8.74,0,0,1,2.07,2.13C328.46,540.92,327.92,542.17,327,542.11Zm-1,1c0,.44-1.73,2.25-2,2.11a4.56,4.56,0,0,1-2-1.93c-.17-.3,1.58-2.23,1.91-2.09A6.77,6.77,0,0,1,326,543.08Zm-5.14-.87a7.91,7.91,0,0,1-2-2.11,7.61,7.61,0,0,1,2-2,7.46,7.46,0,0,1,2,2.11A7.08,7.08,0,0,1,320.9,542.21Zm-1.06,1a4.24,4.24,0,0,1-2,1.91c-.33.13-2.21-1.75-2-2,.6-.77,1.31-1.45,1.87-2.05C318.31,541.16,320,543,319.84,543.26Zm-5-1.07c-.32.15-2.09-1.78-1.92-2.07a4.43,4.43,0,0,1,2-1.94c.32-.14,2.07,1.64,2,2.1A7,7,0,0,1,314.81,542.19Zm-2.7,2.72V541.8C314.33,542.79,314.33,543.25,312.11,544.91Zm-.06,6.28v-3.47C314.33,548.88,314.34,549.3,312.05,551.19Zm.05,2.37c2.25,1.87,2.25,2,0,3.64Zm0,6.38c2.2,1.34,2.22,1.63,0,3.23Zm2.91,2.6c.56.6,1.26,1.28,1.86,2,.18.23-1.7,2.12-2,2a4.41,4.41,0,0,1-2-1.92C312.72,564.37,314.42,562.56,315,562.54Zm-.14,6.18c.31-.13,2.06,1.69,2,2a7.6,7.6,0,0,1-2.12,2c-.39,0-2.07-1.85-1.9-2.12A4.59,4.59,0,0,1,314.88,568.72Zm-.11,6.07a7.45,7.45,0,0,1,2.14,2c0,.33-1.69,2.17-2,2.05a4.5,4.5,0,0,1-2-1.9C312.71,576.66,314.37,574.83,314.77,574.79Zm-2.71,7v-3.6C314.36,579.47,314.37,579.78,312.06,581.82Zm.09,2.68c2.18,1.31,2.18,1.41,0,3.24Zm2.67,2.53a7.69,7.69,0,0,1,2.09,2,7.52,7.52,0,0,1-2.08,2,7.84,7.84,0,0,1-2.09-2A7.66,7.66,0,0,1,314.82,587Zm3,3A7.15,7.15,0,0,1,320,592.2a7.43,7.43,0,0,1-2.13,1.94,5.86,5.86,0,0,1-2-2.08C315.73,591.83,317.58,590,317.86,590Zm1.06-1c-.11-.32,1.73-2,2.06-2a7.52,7.52,0,0,1,2.08,2c0,.29-2,2.22-2.19,2.08A5.16,5.16,0,0,1,318.92,589Zm5.14,1a7.13,7.13,0,0,1,2,2.23,8.42,8.42,0,0,1-2.05,1.93,7.42,7.42,0,0,1-2.09-2A8.26,8.26,0,0,1,324.06,590Zm.94-1a5.17,5.17,0,0,1,2.12-2c.26-.1,2,1.78,2,2a7.19,7.19,0,0,1-2.12,2C326.69,591,324.86,589.16,325,589Zm5,1a7.88,7.88,0,0,1,2.18,2.13c0,.26-1.84,2.11-2.06,2a5.94,5.94,0,0,1-2.07-2A7.44,7.44,0,0,1,330,590Zm1-.94A7.45,7.45,0,0,1,333,587c.46,0,2.31,1.64,2.21,2a5.22,5.22,0,0,1-1.94,2.15C333.07,591.28,330.94,589.31,331.06,589.07Zm5.26.95a7.18,7.18,0,0,1,1.95,2.12,6.12,6.12,0,0,1-2.09,2c-.23.11-2.06-1.73-2.05-2A7.46,7.46,0,0,1,336.32,590Zm.95-.87c-.15-.18,1.6-2.07,1.91-2.12a7.42,7.42,0,0,1,2.14,2c0,.28-1.78,2.14-2,2A5.78,5.78,0,0,1,337.27,589.15Zm5,.86a7.55,7.55,0,0,1,2,2.11c0,.31-1.86,2.11-2.06,2a7,7,0,0,1-1.93-2A7.19,7.19,0,0,1,342.31,590Zm0-2c-.18.13-2-1.73-2-2a7.42,7.42,0,0,1,2-2.08c.27,0,2.08,1.9,2,2.11A6.69,6.69,0,0,1,342.34,588.05Zm0-6.13c-.33,0-2.14-1.81-2-2.06a6.18,6.18,0,0,1,2-2.06c.18-.12,2,1.83,2,2.08A5.94,5.94,0,0,1,342.29,581.92Zm-.05-6.13a6.78,6.78,0,0,1-1.92-2,7.6,7.6,0,0,1,2-2.1,7.58,7.58,0,0,1,2,2.13C344.27,574.14,342.42,575.93,342.24,575.79Zm.13-6.13a6,6,0,0,1-2.11-2c0-.31,1.76-2.17,2-2.05a4.94,4.94,0,0,1,2,1.91C344.45,567.81,342.76,569.62,342.37,569.66Zm0-6.08a7.35,7.35,0,0,1-2-1.92c-.15-.18,1.55-2.09,1.88-2.15a6.35,6.35,0,0,1,2.08,2C344.31,561.71,342.53,563.69,342.34,563.58Zm-2-8.08a7.24,7.24,0,0,1,2-2.09c.29,0,2.1,1.85,2,2.08a6.05,6.05,0,0,1-1.91,2C342.18,557.61,340.32,555.79,340.3,555.5Zm1.93-4.2a6.87,6.87,0,0,1-1.92-2c-.11-.2,1.75-2.09,2-2.09a7.63,7.63,0,0,1,2,2.13C344.28,549.66,342.42,551.44,342.23,551.3Zm.07-6a7.26,7.26,0,0,1-2-2.11,6.9,6.9,0,0,1,1.94-2c.19-.15,2.05,1.66,2.06,2A7.48,7.48,0,0,1,342.3,545.3Zm3-7.08,0,3.95a.67.67,0,0,1-.15-.06C343,539.91,342.41,540.7,345.28,538.22Zm0-4.38V536a10.81,10.81,0,0,1-2.21-2.16Zm-1,3.21a5.82,5.82,0,0,1-2,2.08c-.3,0-2.18-1.75-2.06-2a6,6,0,0,1,2-2.1C342.46,534.89,344.3,536.75,344.32,537.05Zm-2.95-3.2c-2,2.75-2.3,2.75-4.21.12A20.87,20.87,0,0,1,341.37,533.85Zm-3.11,3.32A6.6,6.6,0,0,1,336,539.1a6.9,6.9,0,0,1-1.88-2.06c-.1-.25,1.85-2,2.11-1.94A7,7,0,0,1,338.26,537.17Zm-3.08-3.29c-1.62,2.74-2,2.75-4.2.07A21.9,21.9,0,0,1,335.18,533.88Zm-3.07,3.18a5.29,5.29,0,0,1-2,2.07c-.28,0-2.13-1.87-2-2.08a4.9,4.9,0,0,1,1.95-2C330.31,534.93,332.09,536.68,332.11,537.06Zm-3-3.13c-2,2.61-2.28,2.61-4.16,0Zm-3.09,3.16a7.51,7.51,0,0,1-2.1,2c-.39,0-2.11-1.81-1.94-2.09a4.69,4.69,0,0,1,2-1.94C324.29,535,326.07,536.74,326.06,537.09ZM323,534c-1.94,2.57-2.2,2.56-4,.09A8,8,0,0,1,323,534Zm-3,3.07a7.76,7.76,0,0,1-2.05,2,7.83,7.83,0,0,1-2.11-2,7.08,7.08,0,0,1,2.05-2A7.68,7.68,0,0,1,320,537.09Zm-3.05-3.17c-1.77,2.65-2.38,2.64-4.15,0Zm-4.87,1.4c2.17,1.73,2.17,1.73.12,3.57A19.61,19.61,0,0,1,312.07,535.32Zm0,30.61c2.35,1.38,2.37,1.78,0,3.56Zm.07,9.58a5.9,5.9,0,0,1-.07-.61c0-.88,0-1.76,0-2.66C314.24,573.18,314.28,573.74,312.11,575.51ZM312,590.38c2.14,1.31,2.19,1.52.68,3A9.36,9.36,0,0,1,312,590.38Zm3.27,6.37a2.69,2.69,0,0,1-1.87-2.13c-.15-.69.87-1,1.4-1.78.77.82,1.76,1.43,2,2.27C317,595.79,315.88,596.84,315.27,596.75Zm4,1.9a4.78,4.78,0,0,1-2.83-1.06c1.29-1.59,2.57-1.45,3.39.32C320.11,598.51,319.73,598.67,319.27,598.65Zm1.65-1.42a7,7,0,0,1-2-2c-.13-.19,1.65-2.13,1.93-2.15a6.4,6.4,0,0,1,2.06,2C322.94,595.45,321.12,597.37,320.92,597.23Zm3.07,1.71c-.79-.11-1.71.3-2.07-.74-.09-.26,1.82-2.13,2.05-2,.87.47,1.95,1.2,2,2C326,599.43,324.62,598.69,324,598.94Zm1-3.87a5.34,5.34,0,0,1,2.14-2,5.89,5.89,0,0,1,2,2.21,7.32,7.32,0,0,1-2.07,1.91C326.74,597.36,324.81,595.3,325,595.07ZM330.1,599c-.71-.2-2,.37-1.94-.69,0-.89,1.12-1.53,1.92-2.09.19-.13,2.15,1.7,2.08,2C331.84,599.34,330.82,598.77,330.1,599Zm1.07-3.83a6.81,6.81,0,0,1,2-2,7.8,7.8,0,0,1,2,2.11,7.47,7.47,0,0,1-2,2A7.2,7.2,0,0,1,331.17,595.13Zm5,3.81c-.74-.08-1.64.28-2-.72-.1-.25,1.76-2,2.06-2s2.15,1.81,2,2.06C337.82,599.21,336.92,598.86,336.18,598.94Zm3.1-1.84c-.34.15-2.2-1.62-2-2a6,6,0,0,1,1.91-2c.21-.16,2,1.65,2.06,2.16A5.87,5.87,0,0,1,339.28,597.1Zm2.85,1.83c-.55-.17-1.79.41-1.72-.74.06-.82,1.09-1.46,1.88-2,.22-.14,2,1.75,2,2C344.26,598.8,343.87,598.93,342.13,598.93Zm3.09-2.1c-2.29-1.28-2.31-1.57,0-3.56Zm0-6c-2.41-1.64-2.41-1.77,0-3.71Zm0-5.89a1.13,1.13,0,0,1-.26-.16c-2.09-1.95-2.09-2,.31-3.79,0-.74,0-1.49,0-2.23-2.66-2.37-2.52-1.65,0-4l0,4c0,.74,0,1.49,0,2.23C345.27,582.33,345.26,583.65,345.24,585Zm.05-30.67c0,.74,0,1.49,0,2.23,0,1.32,0,2.65,0,4,0,.69,0,1.39,0,2.08,0,1.32,0,2.64,0,4v2.23l0,4h0a1.74,1.74,0,0,1-.26-.15c-2.11-2-2.11-2,.29-3.81,0-.74,0-1.49,0-2.23-2.77-2.41-2.42-1.66,0-4,0-.69,0-1.39,0-2.08a.66.66,0,0,1-.15,0c-2.19-2.28-2.64-1.44.16-3.92,0-.74,0-1.49,0-2.23-2.39-1.8-2.39-2,0-3.82Zm0-6c-2.61-2.36-2.56-1.62,0-4l.08,1.2C345.33,546.39,345.3,547.32,345.27,548.24Zm212.05,52.9c-3.55,1.21-7.09,2.49-10.67,3.61-2.79.87-5.61,1.63-8.44,2.34.58-11.72,3.11-72.64-17-72.64H398c-19.82,0-17.7,58.93-17.08,72a101.28,101.28,0,0,1-19.05-8.7,2.07,2.07,0,0,0-.46-.11,2.66,2.66,0,0,1,0-.28c-.24-.1-.45-.22-.67-.33L359,386.78a53.28,53.28,0,0,1,1.14-9.31c3.37-11.49,14.21-41.33,36.11-41.33H520c21.9,0,32.74,29.84,36.11,41.33a54,54,0,0,1,1.18,11.22V600.55m10.56-49.76h0c.15-.06.31-.11.46-.18C568.14,550.68,568,550.73,567.83,550.79Z" transform="translate(-59.89 -134.41)"/><rect class="cls-1" x="332.97" y="408.52" width="133.9" height="67.8" rx="6.88" ry="6.88"/><path class="cls-13" d="M514.34,557.24v3.27a12.25,12.25,0,0,1,12,4.9h1V552.34h-1S518.84,558.06,514.34,557.24Z" transform="translate(-59.89 -134.41)"/><path class="cls-12" d="M505.91,557c.09-.25.22-.32.39-.32h4.07c.31,0,.4.16.38.72h-1c-.39,0-.69.49-.69,1.11s.28,1.12.69,1.14h1c.06.51,0,.72-.33.72h-4.12c-.16,0-.28-.08-.37-.31Zm1.27.53v0a1.33,1.33,0,0,0-.28,0c-.19,0-.34.23-.37.54-.06.84-.06,1.54.69,1.46h.14c.29,0,.45-.27.47-.74,0-.2,0-.42,0-.62,0-.37-.18-.6-.41-.64A1,1,0,0,0,507.18,557.52Z" transform="translate(-59.89 -134.41)"/><path class="cls-12" d="M511,557.39c0-.83-.17-1-.66-1h-1l-.08-.07a6.12,6.12,0,0,1,.58-.57,2,2,0,0,1,2.92.53.37.37,0,0,0,.22.12,4.17,4.17,0,0,0,.5,0v4.37H513a.52.52,0,0,0-.45.21,2,2,0,0,1-3.13-.08,2.12,2.12,0,0,1-.18-.25h1.1c.5,0,.61-.16.68-1h.46c.42,0,.72-.5.71-1.15s-.31-1.09-.72-1.1Z" transform="translate(-59.89 -134.41)"/><path class="cls-12" d="M510.61,559.34h-.81c-.31,0-.53-.36-.53-.82s.21-.8.51-.81c.56,0,1.11,0,1.67,0,.3,0,.51.37.51.82s-.22.8-.52.81-.55,0-.83,0Z" transform="translate(-59.89 -134.41)"/><path class="cls-12" d="M526.07,553.28l-.57-1.59.59-.61.67,1.48Z" transform="translate(-59.89 -134.41)"/><path class="cls-12" d="M526.09,566.08l-.59-.6.57-1.59.69.71Z" transform="translate(-59.89 -134.41)"/><path class="cls-12" d="M520.3,556.94l-.26-1.79.71-.31.3,1.78Z" transform="translate(-59.89 -134.41)"/><path class="cls-12" d="M518.59,555.65l.73-.24.23,1.81-.75.24Z" transform="translate(-59.89 -134.41)"/><path class="cls-12" d="M518.8,559.71l.75.24-.23,1.8c-.22-.07-.42-.12-.61-.2s-.1-.15-.09-.22C518.67,560.79,518.73,560.26,518.8,559.71Z" transform="translate(-59.89 -134.41)"/><path class="cls-12" d="M520.3,560.23l.75.31-.3,1.78L520,562Z" transform="translate(-59.89 -134.41)"/><path class="cls-12" d="M517.13,556l.73-.16.18,1.82-.76.18Z" transform="translate(-59.89 -134.41)"/><path class="cls-12" d="M524,562.19l-.44,1.7-.67-.45.4-1.72Z" transform="translate(-59.89 -134.41)"/><path class="cls-12" d="M517.86,561.32l-.73-.17.14-1.83.76.18Z" transform="translate(-59.89 -134.41)"/><path class="cls-12" d="M515,558.18l-.77.06V556.4l.7-.07Z" transform="translate(-59.89 -134.41)"/><path class="cls-12" d="M514.92,560.83l-.71-.06v-1.84l.76.06Z" transform="translate(-59.89 -134.41)"/><path class="cls-12" d="M524.21,552.79l.65-.53.52,1.64-.69.56Z" transform="translate(-59.89 -134.41)"/><path class="cls-12" d="M524.21,564.38l.48-1.68.69.57-.52,1.63Z" transform="translate(-59.89 -134.41)"/><path class="cls-12" d="M522.85,553.72l.68-.44L524,555l-.71.47Z" transform="translate(-59.89 -134.41)"/><path class="cls-12" d="M521.46,554.5l.7-.37.37,1.75-.74.39Z" transform="translate(-59.89 -134.41)"/><path class="cls-12" d="M521.79,560.9l.74.39-.37,1.74-.7-.37Z" transform="translate(-59.89 -134.41)"/><path class="cls-12" d="M515.75,558.1l-.09-1.84.73-.1.12,1.83Z" transform="translate(-59.89 -134.41)"/><path class="cls-12" d="M516.39,561l-.73-.1.08-1.84.77.11Z" transform="translate(-59.89 -134.41)"/><path class="cls-12" d="M506.3,559.75h0l.12-2.34H392.86v2.34S506.3,559.48,506.3,559.75Z" transform="translate(-59.89 -134.41)"/><path class="cls-12" d="M358.34,448.08l96-106s4-5,8.5,0l95,106.5v59l-99-110s-100.5,110-99.75,110.5S358.34,448.08,358.34,448.08Z" transform="translate(-59.89 -134.41)"/></g><g id="Calque_2" data-name="Calque 2"><path class="cls-1" d="M740.3,160.11h11.36a1.12,1.12,0,0,0,.93.33,85.27,85.27,0,0,1,24.23,5.38c2.72,1,5.52,1.91,7.91,3.65-6,3.3-11.79,7.14-19.19,5.94a29.46,29.46,0,0,0-3.26,0,1.61,1.61,0,0,0-1.74,1c-1.62,3.34-3.3,6.65-5,10-.37.74-.46,1.14.54,1.44,2.46.73,4.89,1.59,7.32,2.43a2.48,2.48,0,0,0,1.5,0c3.26-.85,6.52-1.66,9.78-2.47a3.92,3.92,0,0,1,2.51,0c7.15,2.85,14.71,4,22.2,5.55a2.47,2.47,0,0,0,2.05-.41c2.66-1.77,5.37-3.49,8.06-5.22a16.76,16.76,0,0,1,1.25,1.13,90.28,90.28,0,0,1,12.12,16.74q-8.77,2.91-17.54,5.82a6.79,6.79,0,0,1-3.37.36c-5.17-.9-10.33-1.82-15.52-2.64a2.46,2.46,0,0,1-1.88-1.23c-1.54-2.35-3.14-4.66-4.66-7a2,2,0,0,0-1.92-1.1c-5.28,0-10.56,0-15.83,0a2.32,2.32,0,0,0-1.82.73q-3.8,3.87-7.67,7.66a2.06,2.06,0,0,0-.57,2q1.38,9.22,2.65,18.47a2.12,2.12,0,0,0,1.39,1.92c6.32,2.67,12.62,5.39,18.91,8.11a3.61,3.61,0,0,0,2.49.14c3.13-.85,6.31-1.55,9.45-2.38a2.84,2.84,0,0,1,2.57.44c2.16,1.5,4.33,3,6.57,4.38a2.51,2.51,0,0,1,1.37,2.49c-.08,3,0,6.07,0,9.11a5.48,5.48,0,0,0,.62,2.63c2.41,4.74,4.51,9.65,7.2,14.22,3.56,6,5.38,12.27,4.51,19.25,0,.17,0,.34,0,.51a2.81,2.81,0,0,0,1.07,2.56c2.34,2.28,4.61,4.62,6.91,6.94a45.57,45.57,0,0,1-5.74,7.5C795.19,325.12,774.1,335,749,336.3a81.21,81.21,0,0,1-31.14-4.51C693.31,323.17,675.6,307,665,283.18a86.47,86.47,0,0,1-7.3-35.1,83.66,83.66,0,0,1,1.83-17.57,71.45,71.45,0,0,1,5-16,5.75,5.75,0,0,1,.38.74c1.49,4.43,3,8.88,4.46,13.31a3,3,0,0,0,1.08,1.86q8.18,5.39,16.3,10.87c1.09.73,1.19.22,1.18-.75,0-3-.06-6,0-8.95a2.65,2.65,0,0,0-1.08-2.53c-4.5-3.06-6-7.34-5.09-12.58a1.81,1.81,0,0,0,0-.52c-.12-1,.46-1.3,1.3-1.41,4.36-.59,8.7-1.25,13.07-1.75s8.67-1.32,12.27-4.18a7.86,7.86,0,0,1,1.62-1,25.79,25.79,0,0,0,13.28-13.17c1.12-2.42,2.33-5.1,4.26-6.77s5-1.94,7.62-2.83c.27-.09.53-.23.81-.3a1.07,1.07,0,0,0,.79-.81c.9-2.76,1.82-5.51,2.76-8.36l-5.71-.9c-1.91-.31-3.83-.63-5.73-1-2.3-.42-4.81-.42-6.82-1.41a45,45,0,0,1-8.25-5.51,5,5,0,0,1,.72-.44,91.92,91.92,0,0,1,18.89-5C735.22,160.72,737.81,160.79,740.3,160.11Zm-36.9,128V301.7a5.7,5.7,0,0,0,.3,2.19q2.67,6.6,5.27,13.22a2.08,2.08,0,0,0,1.4,1.35c2.18.69,4.37,1.35,6.5,2.16,1.27.48,1.45,0,1.43-1.09,0-4,0-7.92,0-11.88a2.79,2.79,0,0,1,1.27-2.58c3.29-2.4,6.5-4.89,9.8-7.27a2.76,2.76,0,0,0,1.27-2.59c-.08-2.07,0-4.13,0-6.2a2.8,2.8,0,0,1,1-2.25c3.39-3.35,6.72-6.74,10.12-10.07a4.29,4.29,0,0,0,1.32-2.33c.83-4.08,1.64-8.16,2.46-12.24.2-1,0-1.58-1.24-1.55-3,.08-6,0-8.95.06a2.46,2.46,0,0,1-2.45-1.42c-2.46-4.2-5-8.34-7.46-12.55a2.3,2.3,0,0,0-2.32-1.31c-6.08.05-12.16,0-18.23.05a2.18,2.18,0,0,1-2.26-1.4c-1.5-3.15-3.12-6.24-4.62-9.38-.53-1.11-.91-1.34-1.87-.34a116.54,116.54,0,0,1-9.38,9.35c-3.65,3-5.34,6.45-4.54,11.13.2,1.22-.16,2.48.47,3.7,1.73,3.29,3.37,6.62,5,10a2,2,0,0,0,1.61,1.26c4.26.8,8.48,1.8,12.74,2.55,1.33.24,1.51.82,1.5,1.94C703.38,278.82,703.4,283.46,703.4,288.11Z" transform="translate(-59.89 -134.41)"/><path class="cls-2" d="M833.94,254.79c-.79,2-.66,4.22-1,6.33a88.29,88.29,0,0,1-14.84,37.43,1.72,1.72,0,0,1-.37.34c-2.3-2.32-4.57-4.66-6.91-6.94a2.81,2.81,0,0,1-1.07-2.56c0-.17,0-.34,0-.51.87-7-.95-13.24-4.51-19.25-2.69-4.57-4.79-9.48-7.2-14.22a5.48,5.48,0,0,1-.62-2.63c0-3,0-6.08,0-9.11a2.51,2.51,0,0,0-1.37-2.49c-2.24-1.38-4.41-2.88-6.57-4.38a2.84,2.84,0,0,0-2.57-.44c-3.14.83-6.32,1.53-9.45,2.38a3.61,3.61,0,0,1-2.49-.14c-6.29-2.72-12.59-5.44-18.91-8.11a2.12,2.12,0,0,1-1.39-1.92q-1.28-9.24-2.65-18.47a2.06,2.06,0,0,1,.57-2q3.89-3.79,7.67-7.66a2.32,2.32,0,0,1,1.82-.73c5.27,0,10.55,0,15.83,0a2,2,0,0,1,1.92,1.1c1.52,2.36,3.12,4.67,4.66,7a2.46,2.46,0,0,0,1.88,1.23c5.19.82,10.35,1.74,15.52,2.64a6.79,6.79,0,0,0,3.37-.36q8.76-2.92,17.54-5.82c.25.51.48,1,.75,1.54a87.72,87.72,0,0,1,9.49,29.36c.23,1.66.09,3.39.82,5Z" transform="translate(-59.89 -134.41)"/><path class="cls-2" d="M703.4,288.11c0-4.65,0-9.29,0-13.94,0-1.12-.17-1.7-1.5-1.94-4.26-.75-8.48-1.75-12.74-2.55a2,2,0,0,1-1.61-1.26c-1.64-3.34-3.28-6.67-5-10-.63-1.22-.27-2.48-.47-3.7-.8-4.68.89-8.12,4.54-11.13a116.54,116.54,0,0,0,9.38-9.35c1-1,1.34-.77,1.87.34,1.5,3.14,3.12,6.23,4.62,9.38a2.18,2.18,0,0,0,2.26,1.4c6.07-.06,12.15,0,18.23-.05a2.3,2.3,0,0,1,2.32,1.31c2.44,4.21,5,8.35,7.46,12.55a2.46,2.46,0,0,0,2.45,1.42c3-.1,6,0,8.95-.06,1.27,0,1.44.53,1.24,1.55-.82,4.08-1.63,8.16-2.46,12.24a4.29,4.29,0,0,1-1.32,2.33c-3.4,3.33-6.73,6.72-10.12,10.07a2.8,2.8,0,0,0-1,2.25c.05,2.07,0,4.13,0,6.2a2.76,2.76,0,0,1-1.27,2.59c-3.3,2.38-6.51,4.87-9.8,7.27a2.79,2.79,0,0,0-1.27,2.58c.07,4,0,7.92,0,11.88,0,1.12-.16,1.57-1.43,1.09-2.13-.81-4.32-1.47-6.5-2.16a2.08,2.08,0,0,1-1.4-1.35q-2.61-6.63-5.27-13.22a5.7,5.7,0,0,1-.3-2.19Z" transform="translate(-59.89 -134.41)"/><path class="cls-2" d="M664.57,214.5a39.17,39.17,0,0,1,3.76-8.22A87.6,87.6,0,0,1,711.62,167a12.86,12.86,0,0,1,1.46-.44,45,45,0,0,0,8.25,5.51c2,1,4.52,1,6.82,1.41,1.9.34,3.82.66,5.73,1l5.71.9c-.94,2.85-1.86,5.6-2.76,8.36a1.07,1.07,0,0,1-.79.81c-.28.07-.54.21-.81.3-2.58.89-5.64,1.11-7.62,2.83s-3.14,4.35-4.26,6.77a25.79,25.79,0,0,1-13.28,13.17,7.86,7.86,0,0,0-1.62,1c-3.6,2.86-7.87,3.67-12.27,4.18s-8.71,1.16-13.07,1.75c-.84.11-1.42.43-1.3,1.41a1.81,1.81,0,0,1,0,.52c-.88,5.24.59,9.52,5.09,12.58a2.65,2.65,0,0,1,1.08,2.53c-.07,3,0,6,0,8.95,0,1-.09,1.48-1.18.75q-8.13-5.47-16.3-10.87a3,3,0,0,1-1.08-1.86c-1.5-4.43-3-8.88-4.46-13.31A5.75,5.75,0,0,0,664.57,214.5Z" transform="translate(-59.89 -134.41)"/><path class="cls-2" d="M784.73,169.47a32,32,0,0,1,7.08,3.68A86.06,86.06,0,0,1,809,186.94a5.65,5.65,0,0,1,.48.69c-2.69,1.73-5.4,3.45-8.06,5.22a2.47,2.47,0,0,1-2.05.41c-7.49-1.5-15-2.7-22.2-5.55a3.92,3.92,0,0,0-2.51,0c-3.26.81-6.52,1.62-9.78,2.47a2.48,2.48,0,0,1-1.5,0c-2.43-.84-4.86-1.7-7.32-2.43-1-.3-.91-.7-.54-1.44,1.69-3.31,3.37-6.62,5-10a1.61,1.61,0,0,1,1.74-1,29.46,29.46,0,0,1,3.26,0C772.94,176.61,778.75,172.77,784.73,169.47Z" transform="translate(-59.89 -134.41)"/></g></svg>